<?xml version="1.0" encoding="utf-8"?>
<!-- Generator: Adobe Illustrator 26.3.1, SVG Export Plug-In . SVG Version: 6.00 Build 0)  -->
<svg version="1.1" id="Livello_1" xmlns="http://www.w3.org/2000/svg" xmlns:xlink="http://www.w3.org/1999/xlink" x="0px" y="0px"
	 viewBox="0 0 282.1 36.2" style="enable-background:new 0 0 282.1 36.2;" xml:space="preserve">
<style type="text/css">
	.st0{fill:#787979;}
	.st1{fill:#424343;}
	.st2{fill:url(#SVGID_1_);}
	.st3{fill:url(#SVGID_00000049930265302864304120000006571098507580020662_);}
	.st4{fill:url(#SVGID_00000075873423783585853380000017626068157976998528_);}
</style>
<g id="Livello_2_00000018925737484043574380000005855023843735274881_">
	<g id="Livello_1-2">
		<path class="st0" d="M9.3,26.6l-8-15.9H1.3l0,15.9H0V9.5h2L10,25.4h0.1V9.5h1.2v17.1H9.3z"/>
		<path class="st0" d="M15.2,26.6V9.5h9.2v1.1h-8v6.7h5.8v1.1h-5.8v7.2h8v1.1H15.2z"/>
		<path class="st0" d="M31.4,10.6v16h-1.2v-16h-4.7V9.5h10.6v1.1H31.4z"/>
		<path class="st0" d="M53,26.8h-2l-3.6-16h0l-3.7,16h-2L37.6,9.5h1.3l3.7,16.2h0.1l3.7-16.2h1.9l3.7,16.2H52l3.7-16.2H57L53,26.8z"
			/>
		<path class="st0" d="M65.7,26.8c-5.5,0-6.3-4.1-6.3-8.8s0.8-8.8,6.3-8.8s6.3,4,6.3,8.8S71.2,26.8,65.7,26.8z M65.7,10.3
			c-4.7,0-5.1,3.8-5.1,7.7s0.4,7.7,5.1,7.7c4.7,0,5.1-3.8,5.1-7.7S70.4,10.3,65.7,10.3L65.7,10.3z"/>
		<path class="st0" d="M83.5,26.6L79.9,19h-3.4v7.6h-1.2l0-17.1h5.6c1.2,0,2.1,0.3,2.7,0.9c0.8,0.8,1.1,2.2,1.1,3.8s-0.3,3-1.1,3.8
			c-0.6,0.6-1.4,0.9-2.4,0.9l3.6,7.6H83.5z M82.8,11.3c-0.5-0.5-1.2-0.8-1.9-0.7h-4.4v7.4h4.4c1,0,1.5-0.2,1.9-0.7
			c0.6-0.6,0.7-1.9,0.7-3S83.5,11.9,82.8,11.3z"/>
		<path class="st0" d="M96.6,26.6l-5-9.2L89,20.8l0,5.8h-1.2V9.5H89v9.5l7.3-9.5h1.4l-5.3,6.9L98,26.6H96.6z"/>
		<path class="st1" d="M120.6,25.8c-2.2,2-3.9,2.1-7.5,2.1h-8.8V0.3h8.8c3.6,0,5.3,0.1,7.5,2.1c2.4,2.2,3.1,6.6,3.1,11.7
			C123.6,19.2,122.9,23.5,120.6,25.8z M116.8,5.7c-1-1-3-0.9-4.6-0.9h-2.9v18.6h2.9c1.6,0,3.5,0.2,4.6-0.9c1.2-1.2,1.6-4,1.6-8.5
			C118.4,9.7,118,6.9,116.8,5.7z"/>
		<path class="st1" d="M129.3,27.9V7.9h4.7v20.1L129.3,27.9z"/>
		<path class="st1" d="M155.1,27.3c-2.2,0.5-4.7,1-6.6,1c-7.2,0-9.5-4.1-9.5-10.4c0-6.9,3-10.4,9.5-10.4c1.9,0,3.8,0.2,5.7,0.5
			l-0.4,4.3c-2-0.4-3.5-0.6-5.4-0.6c-2.7,0-4.6,0.9-4.6,6.2c0,3.2,0.9,4.7,1.8,5.5c0.6,0.5,1.5,0.8,2.8,0.8c0.7,0,1.3-0.1,2-0.2v-6
			h4.7L155.1,27.3z"/>
		<path class="st1" d="M160.5,27.9V7.9h4.7v20.1L160.5,27.9z"/>
		<path class="st1" d="M179,11.9v16h-4.7l0-16h-5V7.9H184v4.1H179z"/>
		<path class="st1" d="M197.7,27.9l-1-3.7h-5.9l-1,3.7h-4.9L191,7.7h5.5l6.2,20.2H197.7z M194.5,16.2l-0.8-3.6h-0.1l-0.8,3.7l-1,4.1
			h3.8L194.5,16.2z"/>
		<path class="st1" d="M206.8,27.9V7.9h4.7v16h8.3v4.1H206.8z"/>
		
			<linearGradient id="SVGID_1_" gradientUnits="userSpaceOnUse" x1="223.3054" y1="-779.2849" x2="241.0532" y2="-797.0303" gradientTransform="matrix(1 0 0 -1 0 -766)">
			<stop  offset="0" style="stop-color:#20A537"/>
			<stop  offset="1" style="stop-color:#0589C9"/>
			<stop  offset="1" style="stop-color:#000000"/>
		</linearGradient>
		<path class="st2" d="M238.4,33.6c-1.9,1.9-4,2.4-6.6,2.4c-1.5,0-3-0.1-4.5-0.3l0.1-1.7c1.4,0.2,2.9,0.4,4.4,0.4
			c2.1,0,4.2-0.5,5.4-2c0.9-1.2,1.4-2.7,1.4-4.2c0-3.3-1.1-6.5-5-6.5l-2.4,0v-1.6h2.2c3.5,0,4.7-2.4,4.7-5.3c0-2-0.4-3.2-1.2-3.9
			c-0.8-0.7-2-1.1-3.9-1.1c-1.7,0-3.5,0.2-5.2,0.5l-0.1-1.7c1.8-0.2,3.5-0.4,5.3-0.4c2.5,0,4.2,0.5,5.2,1.5c1,1,1.5,2.5,1.5,5
			c0,2.8-0.7,4.6-3,6c2.7,1.4,3.5,4.2,3.5,7.4C240.3,30.5,239.5,32.5,238.4,33.6z"/>
		
			<linearGradient id="SVGID_00000000203424021853068780000012834452323550368942_" gradientUnits="userSpaceOnUse" x1="246.3231" y1="-771.441" x2="262.9203" y2="-788.0382" gradientTransform="matrix(1 0 0 -1 0 -766)">
			<stop  offset="0" style="stop-color:#20A537"/>
			<stop  offset="1" style="stop-color:#0589C9"/>
			<stop  offset="1" style="stop-color:#000000"/>
		</linearGradient>
		<path style="fill:url(#SVGID_00000000203424021853068780000012834452323550368942_);" d="M253.9,27.8c-5.7,0-8-4.6-8-12.5
			c0-4.5,0.8-10.3,3-12.5c2-1.9,4.3-2.8,7.2-2.8c1,0,1.9,0,2.9,0.2l-0.2,1.9c-0.9-0.1-1.8-0.2-2.7-0.2c-2.2,0-4.6,0.7-6.1,2.3
			c-1.7,1.8-2.5,7.2-2.4,9.8c1.3-1.4,4.1-2.8,6.5-2.8c4.1,0,6.9,2.5,6.9,8.5C261.2,25.5,257.8,27.8,253.9,27.8z M254.3,12.8
			c-2.7,0-5.3,1.8-6.6,3.2c0,3.7,0.9,10.2,6.2,10.2c2.6,0,5.6-1.5,5.6-6.5S256.9,12.8,254.3,12.8z"/>
		
			<linearGradient id="SVGID_00000027578159641853151720000002832651654478577321_" gradientUnits="userSpaceOnUse" x1="267.6746" y1="-777.3965" x2="281.1414" y2="-790.8633" gradientTransform="matrix(1 0 0 -1 0 -766)">
			<stop  offset="0" style="stop-color:#20A537"/>
			<stop  offset="1" style="stop-color:#0589C9"/>
			<stop  offset="1" style="stop-color:#000000"/>
		</linearGradient>
		<path style="fill:url(#SVGID_00000027578159641853151720000002832651654478577321_);" d="M274.4,28c-5.1,0-7.6-2.4-7.6-9.8
			c0-7.4,2.5-9.8,7.6-9.8s7.6,2.4,7.6,9.8C282,25.5,279.6,28,274.4,28z M274.4,9.9c-5.2,0-5.7,3.5-5.7,8.2c0,4.7,0.6,8.3,5.8,8.3
			c5.2,0,5.7-3.6,5.7-8.3C280.2,13.4,279.6,9.9,274.4,9.9L274.4,9.9z"/>
	</g>
</g>
</svg>
