<?xml version="1.0" encoding="UTF-8"?> <!-- Generator: Adobe Illustrator 24.1.1, SVG Export Plug-In . SVG Version: 6.00 Build 0) --> <svg xmlns="http://www.w3.org/2000/svg" xmlns:xlink="http://www.w3.org/1999/xlink" version="1.1" id="Layer_1" x="0px" y="0px" viewBox="0 0 1000 411.7" style="enable-background:new 0 0 1000 411.7;" xml:space="preserve"> <style type="text/css"> .st0{fill:#0031C0;} .st1{fill:#A3E8E8;} .st2{fill:#0B8BD7;} .st3{fill:#1445CA;} .st4{fill:#8FD4D4;} .st5{fill:#0077C3;} .st6{fill:#1A9AE6;} .st7{fill:#0031B6;} .st8{fill:none;} </style> <g> <g> <path class="st0" d="M549.9,152.1h-26.1V70.8h-34.9v-23h95.9v23h-34.9L549.9,152.1L549.9,152.1z"></path> <path class="st0" d="M632.4,122.2h-10.7v29.9h-25.7V47.8c10.7-0.4,27.6-0.8,41.8-0.8c26.9,0,43.7,13,43.7,37.2 c0,13.8-6.9,25.3-18,31.5l24.9,36.5h-30.7l-19.2-29.9C638.5,122.2,632.4,122.2,632.4,122.2z M637.8,100.3 c10.7,0,17.7-6.5,17.7-16.1c0-10.4-6.9-15.3-18.8-15.3c-4.6,0-10.4,0-15.3,0V100h16.5V100.3z"></path> <path class="st0" d="M793.9,105c0,31.1-18.8,49.5-49.1,49.5c-29.9,0-48.7-18.4-48.7-49.5V47.8h26.1V105c0,16.1,8.8,25.3,22.6,25.3 c13.8,0,23-9.2,23-25.3V47.8h26.1V105z"></path> <path class="st0" d="M889.5,75.4c-14.6-4.6-27.6-6.9-36.5-6.9c-9.2,0-14.6,2.7-14.6,9.2c0,6.9,8.4,8.4,23,11.5 c21.5,4.6,35.7,11.5,35.7,31.5c0,22.3-17.3,33.8-43.7,33.8c-13.4,0-30.3-3.1-46.4-9.2l5.8-23c16.9,6.1,30.3,8.8,39.5,8.8 c11.1,0,16.9-3.1,16.9-8.8c0-8.4-11.9-10-24.9-12.7c-23.4-5-34.2-12.3-34.2-30.7c0-20.7,16.5-33,42.6-33c14.6,0,31.5,3.1,42.2,6.9 L889.5,75.4z"></path> <path class="st0" d="M963.9,152.1h-26.1V70.8h-34.9v-23h95.9v23h-34.9L963.9,152.1L963.9,152.1z"></path> </g> <g> <path class="st0" d="M597.9,238.1c0,32.6-22.3,54.5-54.9,54.5s-54.9-21.9-54.9-54.5s22.3-54.5,54.9-54.5S597.9,205.5,597.9,238.1z M586.3,238.1c0-26.5-17.7-44.1-43.7-44.1c-25.7,0-43.4,17.7-43.4,44.1s17.7,44.5,43.4,44.5C568.7,282.6,586.3,264.6,586.3,238.1z "></path> <path class="st0" d="M642.4,290.3l-33-71h11.5l27.2,58.7l26.9-58.7h11.5l-33,71H642.4z"></path> <path class="st0" d="M762.5,250.8c0,3.5,0,4.6-0.8,8.1h-59.1c1.5,14.6,11.9,24.2,27.6,24.2c9.2,0,16.5-1.5,26.1-3.8l1.5,8.4 c-9.2,2.7-17.3,5-28,5c-24.2,0-38.4-15.7-38.4-38c0-22.6,15.3-37.6,36.8-37.6C748.7,217,762.5,230,762.5,250.8z M702.6,250.8h50.3 c0-15.3-10-24.9-24.2-24.9C713.7,225.8,703.8,235.4,702.6,250.8z"></path> <path class="st0" d="M820,228.1c-10.4,0-18.4,0.4-29.2,1.5v60.6h-10.7v-69.1c13-2.3,26.1-3.8,39.5-3.8v10.7H820z"></path> <path class="st0" d="M894.1,290.3H868V185.9h26.1V290.3z"></path> <path class="st0" d="M1000,223.1c0,23.8-17.7,38.8-45.3,38.8h-14.6v28.4h-25.7V185.9c12.3-0.8,26.1-1.2,40.3-1.2 C982.3,184.8,1000,199,1000,223.1z M956.3,239.6c10.7,0,18-6.1,18-16.1c0-10.4-7.7-16.1-18-16.1c-5.4,0-10.7,0-16.1,0.4v31.8 C940.1,239.6,956.3,239.6,956.3,239.6z"></path> </g> <g> <path class="st0" d="M523,345.9v11.9h-21.9v17.7h-13v-52.2h38.4v11.5h-25.3v11.1C501.2,345.9,523,345.9,523,345.9z"></path> <path class="st0" d="M586.7,349.4c0,16.5-11.5,27.2-28,27.2c-16.5,0-28-10.7-28-27.2s11.5-27.2,28-27.2 C575.2,322.1,586.7,332.9,586.7,349.4z M573.7,349.4c0-9.2-6.1-15.3-14.6-15.3c-8.4,0-14.6,6.1-14.6,15.3 c0,9.2,6.1,15.3,14.6,15.3C567.5,364.7,573.7,358.6,573.7,349.4z"></path> <path class="st0" d="M642.7,351.7c0,15.3-9.6,24.6-24.6,24.6c-15,0-24.2-9.2-24.2-24.6v-28.8h13v28.8c0,8.1,4.2,12.7,11.1,12.7 c6.9,0,11.5-4.6,11.5-12.7v-28.8h13L642.7,351.7L642.7,351.7z"></path> <path class="st0" d="M700.7,375.5h-11.9l-24.2-30.3v30.3h-13v-52.2h11.9l24.2,30.7v-30.7h13V375.5z"></path> <path class="st0" d="M759,349c0,16.5-11.5,26.9-27.2,26.9c-7.7,0-15-0.4-20.7-0.8v-51.8c5.8-0.4,12.3-0.8,19.6-0.8 C747.5,322.5,759,332.9,759,349z M745.6,349c0-9.2-6.1-15-14.6-15c-2.3,0-4.6,0-6.9,0v30.3c2.7,0,5.4,0,8.1,0 C739.4,364.4,745.6,358.2,745.6,349z"></path> <path class="st0" d="M773.6,375.5h-14.2l23.4-52.6h11.9l23,52.6h-14.2l-3.5-8.4h-23L773.6,375.5z M781.7,355.9h14.2l-7.3-17.3 L781.7,355.9z"></path> <path class="st0" d="M843.4,375.5h-13v-40.7h-17.7v-11.5h48v11.5h-17.7v40.7H843.4z"></path> <path class="st0" d="M879.1,375.5h-13v-52.2h13V375.5z"></path> <path class="st0" d="M942.8,349.4c0,16.5-11.5,27.2-28,27.2c-16.5,0-28-10.7-28-27.2s11.5-27.2,28-27.2 C931.3,322.1,942.8,332.9,942.8,349.4z M929.4,349.4c0-9.2-6.1-15.3-14.6-15.3c-8.4,0-14.6,6.1-14.6,15.3 c0,9.2,6.1,15.3,14.6,15.3S929.4,358.6,929.4,349.4z"></path> <path class="st0" d="M1000,375.5h-11.9l-24.2-30.3v30.3h-13v-52.2h11.9L987,354v-30.7h13V375.5z"></path> </g> <path class="st1" d="M276.3,10.2c13.8-8.1,26.1-8.4,35.3-3.1l100.2,58.3l0.4,0.4c-8.8-5.4-21.5-4.6-34.9,3.1l-180,103.6L20.7,70 c-27.6-16.1-27.6-41.8,0-57.9s72.5-16.1,100.2,0l76.7,43.7L276.3,10.2"></path> <ellipse id="Axonometric_Centered_Ellipse_21_" class="st2" cx="71" cy="40.9" rx="42.6" ry="24.6"></ellipse> <path class="st3" d="M299.7,316.8c0,16.1-5.4,27.2-14.6,32.6l-102.5,58.7l0,0c8.8-5.4,14.6-16.5,14.6-32.6V172.1L376.8,68.5 c27.2-15.7,49.5-2.7,49.5,29.5s-22.3,71-49.5,86.7l-77.1,44.9V316.8z"></path> <ellipse id="Axonometric_Centered_Ellipse_20_" transform="matrix(0.4895 -0.872 0.872 0.4895 81.8207 393.798)" class="st1" cx="377.2" cy="127" rx="42.6" ry="24.6"></ellipse> <ellipse id="Axonometric_Centered_Ellipse_28_" transform="matrix(0.4895 -0.872 0.872 0.4895 81.8207 393.798)" class="st1" cx="377.2" cy="127" rx="42.6" ry="24.6"></ellipse> <path class="st2" d="M97.9,318.3c0,32.2,22.3,71,49.5,86.7s49.5,2.7,49.5-29.5V172.1L20.3,69.6C6.9,61.6,0,51.2,0,40.9v117.4 c0,10.4,6.9,21.1,20.7,28.8l77.1,44.5V318.3z"></path> <ellipse id="Axonometric_Centered_Ellipse_19_" transform="matrix(0.872 -0.4895 0.4895 0.872 -150.9492 116.7729)" class="st3" cx="147.8" cy="347" rx="24.6" ry="42.6"></ellipse> <path class="st4" d="M311.6,7.1c-7.7-4.6-17.7-5-28.8,0l100.9,58.7c10-4.2,19.2-4.6,26.1-1.2h0.4L311.6,7.1z"></path> <path class="st4" d="M399.5,137.2l-42.2-24.6c-1.2,2.3-2.7,4.6-3.8,6.9l42.2,24.6C396.8,141.8,398.3,139.5,399.5,137.2z"></path> <path class="st4" d="M347.3,144.5c0,19.2,13.4,27.2,29.9,17.7c5-3.1,9.6-6.9,13.8-11.9l-40.3-23.8 C348.4,132.6,347.3,138.3,347.3,144.5z"></path> <path class="st5" d="M40.7,23.2c-8.1,5-12.3,11.1-12.3,17.7c0,6.1,4.2,12.7,12.7,17.3c5.4,3.1,11.5,5,18,6.1V17.1 C52.6,18.2,46,20.5,40.7,23.2z"></path> <path class="st5" d="M66.8,16.3V65c2.7,0,5,0,7.7,0V16.3C71.8,16.3,69.5,16.3,66.8,16.3z"></path> <path class="st6" d="M0,40.9v117.4c0,8.8,5,17.7,15,25.3V65.8C5,58.5,0,49.7,0,40.9z"></path> <path class="st7" d="M182.7,408.5C182.7,408.1,182.7,408.1,182.7,408.5l102.5-58.7c7.7-4.6,13-13.8,14.2-26.5L196.9,382 C195.7,394.7,190.7,403.5,182.7,408.5z"></path> <g> <line class="st8" x1="86.7" y1="349.4" x2="86.7" y2="349.4"></line> <line class="st8" x1="189.2" y1="290.7" x2="189.2" y2="290.7"></line> </g> <g> <line class="st8" x1="199.5" y1="306.8" x2="199.5" y2="306.8"></line> <line class="st8" x1="97.1" y1="365.5" x2="97.1" y2="365.5"></line> </g> <path class="st7" d="M147.7,312.2c-16.5-9.6-29.9-1.5-29.9,17.7c0,5.8,1.2,11.9,3.1,17.7l40.7-23.4 C157.3,319.1,152.7,314.9,147.7,312.2z"></path> <path class="st7" d="M166.2,330.2l-42.2,24.2c1.2,2.3,2.3,4.6,3.8,6.9l42.6-24.2C168.8,334.8,167.7,332.5,166.2,330.2z"></path> </g> </svg> 