<?xml version="1.0" encoding="UTF-8" standalone="no"?>
<!DOCTYPE svg PUBLIC "-//W3C//DTD SVG 1.1//EN" "http://www.w3.org/Graphics/SVG/1.1/DTD/svg11.dtd">
<svg
   xmlns:svg="http://www.w3.org/2000/svg"
   xmlns="http://www.w3.org/2000/svg"
   id="svg1820"
   version="1.1"
   width="312.10699"
   height="55.959">
  <defs
     id="defs1817" />
  <path
     id="path1798"
     d="m 8.661,23.542 h 2.219 c 4.802,0 8.005,-0.521 9.604,-1.562 1.599,-1.047 2.401,-2.891 2.401,-5.531 0,-2.839 -0.854,-4.844 -2.568,-6.005 C 18.609,9.277 15.463,8.699 10.88,8.699 H 8.661 Z M 8.114,30.636 V 54.542 H 0 V 1.271 h 13.099 c 3.88,0 6.734,0.214 8.568,0.641 1.833,0.422 3.427,1.12 4.786,2.089 1.672,1.24 2.979,2.906 3.927,5.005 0.948,2.099 1.417,4.411 1.417,6.932 0,2.521 -0.469,4.854 -1.417,6.984 -0.948,2.135 -2.255,3.807 -3.927,5.021 -1.359,0.974 -2.953,1.661 -4.786,2.073 -1.833,0.417 -4.687,0.62 -8.568,0.62 z m 74.896,-2.62 c 0,-2.693 -0.49,-5.25 -1.469,-7.677 a 19.9,19.9 0 0 0 -4.24,-6.474 18.74,18.74 0 0 0 -6.24,-4.313 c -2.365,-1.005 -4.859,-1.51 -7.479,-1.51 -2.62,0 -5.109,0.5 -7.479,1.49 -2.359,0.995 -4.469,2.437 -6.312,4.333 a 19.23,19.23 0 0 0 -4.219,6.437 c -0.969,2.427 -1.453,5 -1.453,7.714 0,2.693 0.484,5.24 1.453,7.641 a 19.73,19.73 0 0 0 4.219,6.443 c 1.844,1.891 3.943,3.333 6.297,4.328 2.354,0.995 4.849,1.49 7.495,1.49 2.594,0 5.063,-0.495 7.406,-1.49 2.339,-0.995 4.443,-2.437 6.313,-4.328 a 20,20 0 0 0 4.24,-6.458 c 0.979,-2.417 1.469,-4.953 1.469,-7.625 m 9.026,0 c 0,3.786 -0.708,7.365 -2.13,10.734 -1.417,3.37 -3.484,6.38 -6.203,9.026 -2.74,2.641 -5.833,4.667 -9.276,6.073 -3.443,1.406 -7.057,2.109 -10.844,2.109 -3.833,0 -7.49,-0.708 -10.969,-2.125 a 28.4,28.4 0 0 1 -9.224,-6.057 c -2.719,-2.646 -4.781,-5.641 -6.187,-8.99 -1.406,-3.349 -2.109,-6.938 -2.109,-10.771 0,-3.807 0.703,-7.396 2.109,-10.771 1.406,-3.37 3.469,-6.391 6.188,-9.057 a 28.21,28.21 0 0 1 9.24,-6.042 c 3.446,-1.38 7.092,-2.073 10.951,-2.073 3.833,0 7.464,0.693 10.896,2.073 3.432,1.385 6.51,3.396 9.224,6.042 2.719,2.693 4.786,5.729 6.203,9.115 1.422,3.38 2.13,6.953 2.13,10.714 m 7.698,26.526 V 1.276 h 8.656 v 45.516 h 19.359 v 7.75 z M 132.682,1.277 h 8.661 v 53.266 h -8.661 z m 36.078,7.349 v 45.917 h -8.661 V 8.625 H 145.948 V 1.276 h 36.896 v 7.349 z m 18.615,-7.349 h 8.656 v 53.266 h -8.656 z m 61.62,12.953 c -2.453,-2.089 -5.042,-3.651 -7.771,-4.698 -2.729,-1.042 -5.599,-1.563 -8.604,-1.563 -5.823,0 -10.557,1.87 -14.208,5.604 -3.651,3.734 -5.474,8.573 -5.474,14.516 0,5.75 1.776,10.49 5.328,14.229 3.552,3.734 8.036,5.599 13.443,5.599 3.156,0 6.156,-0.557 9.005,-1.672 2.849,-1.115 5.589,-2.802 8.208,-5.057 v 9.786 c -2.328,1.672 -4.865,2.927 -7.604,3.75 -2.745,0.823 -5.714,1.234 -8.917,1.234 -4.073,0 -7.844,-0.667 -11.297,-2 -3.458,-1.333 -6.495,-3.297 -9.115,-5.896 -2.594,-2.547 -4.594,-5.547 -5.984,-9 -1.396,-3.458 -2.094,-7.141 -2.094,-11.047 0,-3.906 0.698,-7.573 2.094,-11.005 1.391,-3.432 3.411,-6.448 6.057,-9.042 2.646,-2.62 5.677,-4.604 9.094,-5.948 3.422,-1.348 7.12,-2.02 11.099,-2.02 3.13,0 6.115,0.453 8.953,1.365 2.838,0.912 5.589,2.286 8.26,4.13 z m 54.089,13.786 c 0,-2.693 -0.495,-5.25 -1.474,-7.677 a 19.9,19.9 0 0 0 -4.24,-6.474 18.74,18.74 0 0 0 -6.24,-4.313 c -2.365,-1.005 -4.859,-1.51 -7.479,-1.51 -2.62,0 -5.109,0.5 -7.479,1.49 -2.359,0.995 -4.469,2.437 -6.312,4.333 a 19.31,19.31 0 0 0 -4.219,6.437 c -0.969,2.427 -1.453,5 -1.453,7.714 0,2.693 0.484,5.24 1.453,7.641 0.969,2.401 2.38,4.552 4.219,6.443 1.844,1.891 3.943,3.333 6.297,4.328 2.354,0.995 4.849,1.49 7.495,1.49 2.594,0 5.062,-0.495 7.406,-1.49 2.339,-0.995 4.443,-2.437 6.313,-4.328 a 20,20 0 0 0 4.24,-6.458 c 0.979,-2.417 1.474,-4.953 1.474,-7.625 m 9.021,0 c 0,3.786 -0.708,7.365 -2.13,10.734 -1.417,3.37 -3.484,6.38 -6.203,9.026 -2.74,2.641 -5.833,4.667 -9.276,6.073 -3.443,1.406 -7.057,2.109 -10.844,2.109 -3.833,0 -7.49,-0.708 -10.969,-2.125 -3.484,-1.422 -6.557,-3.443 -9.224,-6.057 -2.719,-2.646 -4.781,-5.641 -6.187,-8.99 -1.406,-3.349 -2.109,-6.938 -2.109,-10.771 0,-3.807 0.703,-7.396 2.109,-10.771 1.406,-3.37 3.469,-6.391 6.188,-9.057 a 28.21,28.21 0 0 1 9.24,-6.042 c 3.448,-1.38 7.099,-2.073 10.953,-2.073 3.833,0 7.464,0.693 10.896,2.073 3.432,1.385 6.51,3.396 9.224,6.042 2.719,2.693 4.786,5.729 6.203,9.115 1.422,3.38 2.13,6.953 2.13,10.714"
     style="fill:#cf1c23" />
</svg>
