<?xml version="1.0" encoding="utf-8"?>
<!-- Generator: Adobe Illustrator 25.4.1, SVG Export Plug-In . SVG Version: 6.00 Build 0)  -->
<svg version="1.0" id="Layer_1" xmlns:v="https://vecta.io/nano"
	 xmlns="http://www.w3.org/2000/svg" xmlns:xlink="http://www.w3.org/1999/xlink" x="0px" y="0px" viewBox="0 0 561.6 123.3"
	 enable-background="new 0 0 561.6 123.3" xml:space="preserve">
<path d="M14.4,15.5h40.5v92.3H14.4V15.5z M126.6,15.5v40.1l-23.2-40.1H60.3v92.3h40.5V72.2l23.2,35.6h43.1V15.5H126.6z M341.9,32.8
	c-3.6-5.8-9-10.3-15.3-13c-7.2-3-15-4.4-22.9-4.3H174.3v92.3h40.5V93.3h89c8.7,0,16.3-1.4,22.9-4.3c6.3-2.7,11.7-7.2,15.3-13
	c3.7-5.8,5.5-13,5.5-21.6S345.5,38.5,341.9,32.8L341.9,32.8z M301.8,63.8c-3.6,1.7-7.6,2.6-11.5,2.5h-75.5V42.5h75.5
	c11.1,0,16.7,4,16.7,11.9C307,59,305.3,62.1,301.8,63.8L301.8,63.8z M372,107.6c-7.7-3.4-12.9-8.7-15.8-15.9S352,74.3,352,61.3V15.5
	h40.5v52.3c0,4.4,0.1,8,2.4,10.9s4.6,4.4,9.1,4.4c3.5,0.2,6.9-1.4,8.9-4.4c2.2-2.9,2.4-6.5,2.4-10.9V15.5h40.5v45.9
	c0,13-1.4,23.1-4.2,30.3c-2.8,7.2-8.1,12.5-15.8,15.9c-7.7,3.4-17,5.1-32,5.1h0.1C389,112.6,379.7,110.9,372,107.6z M484.7,45.1
	h-23.8l-0.1-29.7h86.4v29.7h-22v62.6h-40.5L484.7,45.1z M555.6,6v111.3H6V6H555.6 M561.6,0H0v123.3h561.6V0z"/>
</svg>
