<?xml version="1.0" encoding="UTF-8" standalone="no"?>
<!-- Created with Inkscape (http://www.inkscape.org/) -->

<svg xmlns="http://www.w3.org/2000/svg" version="1.1" viewBox="0 0 559 242">
  <path style="fill:#eb1701" d="M 0,0 H 559 V 242 H 0 Z" />
  <path style="fill:#ffffff" d="M 227,75.4 C 214.7,51.3 183.5,38.1 138.8,38.1 c -53.5,0 -86,18.4 -86,49 0,19.3 15.1,32.2 46.9,40.5 l 13.9,3.6 13.5,3.6 13.9,3.6 c 0.6,0.2 1.6,0.4 2.5,0.9 5,2 7.9,4.9 7.9,8.1 0,6.5 -9.4,11 -23.3,11 -22.4,0 -33.7,-4.5 -40,-15.7 L 27.7,151 c 15.4,27.9 48.2,41.8 99.2,41.8 54.2,0 91.6,-21.4 91.6,-52.4 0,-17.1 -17,-33.3 -42.8,-39.6 l -12,-2.9 -12,-3.1 -12,-2.9 c -3.5,-0.9 -6.6,-1.8 -9.4,-2.7 -6.9,-2 -10.1,-4.7 -10.1,-8.5 0,-6.1 7.9,-9.9 20.2,-9.9 16.7,0 28.7,5.2 32.4,14.6 z M 379.7,89.5 H 326 l -11.8,50.1 c -4,16.8 -12.1,25.3 -24.2,25.3 -6.3,0 -9.8,-2.7 -9.8,-7.6 0,-1.6 0,-2.9 1.7,-9.9 l 13.8,-57.9 h -54.6 l -14.7,63.3 c -1.7,7.6 -2.9,14 -2.9,17.3 0,13.1 16.7,23.4 38,23.4 21.6,0 34.8,-6 48,-21.6 l -4.6,18.9 h 51.2 z m 11.6,0 -23.9,101.3 H 420 L 434.4,130 c 2.6,-10.7 9.5,-16.2 20.1,-16.2 8.6,0 13.2,2.7 13.2,8 0,1.4 -0.6,4.7 -1.4,8.2 l -14.1,60.8 H 506 l 16.1,-69.2 c 0.9,-3.7 1.4,-7.2 1.4,-10.3 0,-14.8 -16.4,-24.9 -40.5,-24.9 -22.1,0 -38.2,6.8 -46.3,19.5 l 4,-16.4 z M 296.7,51.7 h 10.2 l 1.7,-7.6 h -33.3 l -1.8,7.6 h 9.9 l -6,25.5 h 13.4 z m 37.2,12.3 -3.1,13.2 h 13.3 l 7.7,-32.9 h -13.4 l -2.8,12.1 h -12 l 2.8,-12.1 h -13.3 l -7.7,32.9 h 13.3 L 321.8,64 Z m 50.9,5.7 h -20.6 l 1.4,-5.8 h 16.6 l 1.7,-7.2 h -16.6 l 1.2,-5.2 h 19.8 l 1.7,-7.2 h -33 l -7.7,32.9 H 383 Z" />
</svg>
